<?xml version="1.0" encoding="utf-8"?>
<!-- Generator: Adobe Illustrator 18.1.1, SVG Export Plug-In . SVG Version: 6.00 Build 0)  -->
<svg version="1.1" xmlns="http://www.w3.org/2000/svg" xmlns:xlink="http://www.w3.org/1999/xlink" x="0px" y="0px"
	 viewBox="0 0 100 100" enable-background="new 0 0 100 100" xml:space="preserve">
<g>
	<polygon fill="#333333" points="19.9,38 0.2,38 0.2,59.3 19.9,59.3 48.4,86.9 48.4,11.7 	"/>
	<g>
		<path fill="#333333" d="M99.8,49.2c0-16.7-6.6-31.5-18.3-42.7L75,13.1c10.1,9.5,15.6,22,15.6,36.2c0,14.1-6,27.2-15.5,36.2
			l6.5,6.5C92.8,81.3,99.8,65.9,99.8,49.2z"/>
		<path fill="#333333" d="M80.4,49.2c0-12.7-5-24-14-32.4l-6.5,6.5c7.3,6.8,11.3,15.7,11.3,25.9c0,10.1-3.9,19.1-11.2,25.9l6.5,6.5
			C75.4,73.2,80.4,61.9,80.4,49.2z"/>
	</g>
</g>
</svg>
